<svg width="128" height="128" viewBox="0 0 128 128" fill="none" xmlns="http://www.w3.org/2000/svg">
  <!-- Ninja AI Logo (Simplified for Light Theme) -->
  <g id="ninja-ai-icon-light">
    <!-- Skin/Head silhouette (Lighter) -->
    <path d="M64 20 C40 20 20 40 20 64 C20 88 40 108 64 108 C88 108 108 88 108 64 C108 40 88 20 64 20 Z" fill="#2D3E50"/>
    
    <!-- Mask -->
    <path d="M22 60 C22 55 25 50 30 50 L98 50 C103 50 106 55 106 60 L106 85 C106 95 95 106 64 106 C33 106 22 95 22 85 Z" fill="#3D4E60"/>
    
    <!-- Eyes -->
    <path d="M48 65 L40 60 L48 55 Z" fill="white" opacity="0.9"/>
    <path d="M80 65 L88 60 L80 55 Z" fill="white" opacity="0.9"/>
    
    <!-- AI Circuit Headband (Karate Belt style) -->
    <path d="M15 45 L113 45 L113 55 L15 55 Z" fill="#FF8C5A"/>
    
    <!-- Circuit nodes on headband -->
    <circle cx="35" cy="50" r="2" fill="white" opacity="0.8"/>
    <circle cx="64" cy="50" r="2" fill="white" opacity="0.8"/>
    <circle cx="93" cy="50" r="2" fill="white" opacity="0.8"/>
    <path d="M35 50 L64 50 L93 50" stroke="white" stroke-width="1" stroke-dasharray="2 2" opacity="0.4"/>
    
    <!-- Headband tails -->
    <path d="M110 45 L125 35 L120 55 L110 50 Z" fill="#FF6B35"/>
  </g>
</svg>
